<svg width="553" height="172" viewBox="0 0 553 172" fill="none" xmlns="http://www.w3.org/2000/svg">
<g clip-path="url(#clip0_352_189)">
<path d="M276.077 126.669C276.566 124.945 277.054 123.251 277.484 121.492C280.449 109.176 282.755 96.6783 287.351 84.8059C290.282 77.2166 293.984 70.0278 300.569 64.9292C316.102 52.8957 340.745 57.794 347.295 79.5266C348.54 83.6631 348.882 88.1464 349.107 92.4929C349.542 100.795 349.483 109.098 349.874 117.366C349.985 119.891 350.561 122.375 351.574 124.691C352.419 126.586 354.216 128.042 355.53 129.741C356.036 130.315 356.387 131.007 356.551 131.753C356.59 132.046 355.662 132.769 355.159 132.784C349.566 132.94 343.9 133.604 338.488 131.592C336.93 130.923 335.475 130.033 334.17 128.95C332.783 127.91 331.547 127.807 330.209 128.906C322.296 135.421 314.006 133.741 306.074 129.394C298.493 125.224 294.771 118.303 294.952 109.605C295.171 99.1592 302.225 90.8422 313.073 88.2197C316.646 87.4418 320.268 86.9034 323.912 86.608C329.876 85.9927 332.216 82.9208 331.176 77.0115C330.043 70.4771 326.78 65.6715 320.088 64.3138C313.01 62.8487 306.899 65.1245 302.191 70.7066C297.306 76.5134 294.009 83.2871 291.733 90.4271C287.59 103.423 283.834 116.54 280.039 129.643C279.453 131.675 278.31 132.662 276.429 133.091C271.413 134.229 266.411 133.926 261.414 132.945C259.177 132.5 258.078 131.109 257.462 128.882C253.989 116.36 250.541 103.823 246.716 91.4038C245.409 87.3851 243.565 83.5609 241.236 80.0345C239.629 77.5292 236.937 75.7271 234.812 73.5343C234.158 72.8555 233.767 71.9178 233.254 71.0924C234.119 70.6334 234.983 69.7787 235.853 69.7738C246.68 69.6827 257.508 69.6827 268.335 69.7738C269.097 69.7738 269.855 70.4429 270.612 70.8043C270.152 71.5759 269.879 72.6992 269.2 73.0557C265.629 74.9457 264.481 77.9834 265.17 81.6608C267.046 91.7164 268.99 101.762 271.149 111.764C272.224 116.75 273.835 121.629 275.203 126.557L276.077 126.669ZM331.366 104.321C330.687 100.639 330.419 97.0641 329.31 93.7773C328.015 89.9534 324.669 89.2697 321.494 91.8238C320.449 92.6736 319.37 93.7773 318.901 94.9836C317.523 98.5146 316.024 102.085 315.355 105.777C314.241 111.896 314.197 118.108 316.6 124.042C317.577 126.459 319.018 128.559 321.973 128.716C324.928 128.872 327.078 127.407 328.44 124.809C331.723 118.499 330.756 111.72 330.936 104.995C326.736 105.484 324.528 107.891 323.61 112.018C321.294 107.442 321.294 107.442 316.234 104.453C320.112 103.691 322.393 101.469 323.434 97.7429C324.635 101.484 326.662 103.955 331.366 104.321Z" fill="white"/>
<path d="M183.92 39.3042V74.9213C185.068 74.3254 185.634 74.0959 186.128 73.7638C194.368 68.1524 203.297 67.3612 212.377 70.8726C219.25 73.5294 221.619 79.8001 222.147 86.5738C222.635 92.8836 222.357 99.2715 222.611 105.586C222.83 111.012 223.163 116.448 223.773 121.839C223.922 123.43 224.431 124.967 225.26 126.333C226.089 127.699 227.218 128.859 228.56 129.726C229.151 130.117 229.752 131.343 229.537 131.88C229.322 132.417 228.15 132.959 227.393 132.964C218.034 133.039 208.675 133.039 199.316 132.964C198.929 132.944 198.549 132.848 198.2 132.68C197.85 132.512 197.537 132.277 197.279 131.988C197.04 131.68 197.377 130.444 197.807 130.151C203.243 126.469 203.737 120.652 204.157 115.012C204.865 105.508 204.963 95.9652 203.048 86.5689C202.61 84.5871 201.943 82.663 201.06 80.8355C199.634 77.7685 197.255 76.1129 193.684 76.3522C190.196 76.5866 187.334 78.0322 186.264 81.3238C185.131 84.8352 184.262 88.5859 184.203 92.2487C184.061 101.039 184.281 109.83 184.716 118.582C184.931 123.011 186.157 127.265 190.333 129.932C190.822 130.259 191.427 131.46 191.261 131.665C190.773 132.271 189.913 132.925 189.18 132.955C185.761 133.091 182.342 133.018 178.923 133.018C172.983 133.018 167.044 133.062 161.104 132.964C160.191 132.86 159.341 132.447 158.696 131.792C158.515 131.621 159.062 130.181 159.604 129.814C164.313 126.659 165.349 121.644 165.466 116.731C165.764 101.684 165.73 86.6275 165.495 71.5759C165.417 66.3796 162.857 62.1064 158.354 59.1615C157.558 58.6438 157.035 57.6964 156.4 56.954C157.196 56.4657 157.934 55.7868 158.798 55.5377C167.327 53.0519 174.302 48.1828 180.291 41.7363C181.184 40.7596 182.171 39.8952 183.114 38.977L183.92 39.3042Z" fill="white"/>
<path d="M126.794 70.9361C126.418 66.1159 124.416 62.6778 120.972 60.0161C120.332 59.5278 119.59 59.1468 118.984 58.6145C118.525 58.2091 117.812 57.5157 117.919 57.1787C118.217 56.5586 118.742 56.0763 119.384 55.8308C122.589 54.4682 126.159 53.677 128.997 51.7773C133.555 48.7249 137.643 44.9742 141.907 41.4873C142.884 40.7059 143.729 39.8024 145.156 38.4691C145.312 40.2028 145.468 41.1356 145.468 42.0635C145.468 64.6068 145.405 87.1501 145.546 109.693C145.571 114.045 146.279 118.421 146.978 122.733C147.203 124.104 147.715 125.413 148.481 126.573C149.247 127.732 150.249 128.717 151.423 129.463C152.101 129.917 152.37 130.986 152.829 131.773C151.989 132.154 151.154 132.852 150.309 132.867C144.369 132.964 138.43 132.93 132.49 132.901C131.767 132.901 130.839 132.901 130.365 132.515C127.981 130.493 125.568 131.436 122.999 132.027C102.425 136.583 85.2655 123.236 84.4498 102.085C83.9907 90.3294 87.5711 80.3275 97.7652 73.7101C105.854 68.4552 114.827 67.8496 124.064 70.1499C124.85 70.3257 125.612 70.5845 126.794 70.9361ZM104.154 100.766C104.154 107.178 104.34 114.929 107.373 122.21C108.765 125.566 110.372 128.989 114.725 129.048C119.077 129.106 121.143 125.863 122.193 122.411C123.742 117.312 125.08 112.067 125.676 106.783C126.741 97.318 125.91 87.9364 122.257 78.9894C120.967 75.8101 119.194 72.7431 115.301 72.6406C111.237 72.5478 109.464 75.7466 108.047 78.9357C105.17 85.4652 104.374 92.3952 104.154 100.766Z" fill="white"/>
<path d="M503.158 95.7211C504.984 95.0764 506.386 94.7443 507.651 94.1046C514.86 90.6094 521.074 85.36 525.724 78.838C528.079 75.522 527.786 74.6185 524.528 72.201C523.956 71.7761 523.199 70.692 523.375 70.355C523.581 70.0025 523.864 69.7007 524.202 69.4717C524.54 69.2427 524.925 69.0923 525.329 69.0315C531.84 68.9241 538.351 68.9289 544.867 68.9875C545.424 68.9875 545.976 69.6224 546.528 69.9643C546.118 70.5845 545.854 71.4587 545.277 71.7908C542.889 73.1582 540.026 73.9396 538.029 75.6978C533.076 80.0931 528.47 84.9329 523.815 89.6799C523.585 90.0204 523.441 90.4117 523.396 90.8201C523.351 91.2284 523.406 91.6416 523.556 92.0241C528.528 101.069 533.506 110.094 538.698 119.036C541.34 123.583 544.613 127.612 550.011 129.292C550.665 129.492 550.988 130.703 551.505 131.45C550.611 131.973 549.727 132.916 548.824 132.955C542.884 133.091 536.939 133.023 530.995 133.023C526.11 133.023 521.226 133.082 516.341 132.974C515.418 132.974 514.514 132.286 513.601 131.914C514.123 131.079 514.451 129.927 515.208 129.473C517.709 127.934 518.656 125.839 517.973 123.06C516.199 115.827 513.728 108.863 509.097 102.915C508.12 101.665 506.513 100.917 505.19 99.9406C504.545 101.435 503.319 102.954 503.368 104.424C503.568 110.494 503.983 116.57 504.686 122.606C505.019 125.458 506.64 127.885 509.136 129.624C509.801 130.078 510.03 131.167 510.46 131.963C509.698 132.32 508.936 132.984 508.174 132.989C498.815 133.057 489.455 133.057 480.092 132.989C479.672 132.958 479.262 132.84 478.89 132.642C478.517 132.445 478.19 132.172 477.929 131.841C477.709 131.529 478.285 130.234 478.827 129.888C483.224 126.899 484.391 122.274 484.596 117.527C484.992 108.424 484.972 99.3057 485.036 90.178C485.07 84.5617 484.997 78.9455 484.884 73.3292C484.757 67.1366 482.335 62.165 476.927 58.8196C476.317 58.4387 475.95 57.6378 475.496 57.0322C476.126 56.578 476.698 55.9089 477.401 55.7136C486.682 53.1447 494.043 47.758 500.393 40.7401C500.94 40.1345 501.805 39.817 502.523 39.3677C502.723 40.1784 503.104 40.9891 503.104 41.8096C503.14 58.6585 503.14 75.5089 503.104 92.3611L503.158 95.7211Z" fill="white"/>
<path d="M388.096 68.2647V74.892C389.073 74.3694 389.639 74.135 390.133 73.7931C398.192 68.2647 406.946 67.4443 415.938 70.6822C422.576 73.0801 425.375 78.8771 425.932 85.4066C426.567 92.8445 426.259 100.356 426.582 107.823C426.787 112.599 427.207 117.38 427.866 122.113C428.039 123.66 428.556 125.149 429.38 126.471C430.203 127.792 431.311 128.913 432.624 129.751C432.944 130.014 433.198 130.348 433.368 130.725C433.537 131.103 433.617 131.515 433.601 131.929C433.547 132.364 432.36 132.959 431.681 132.964C422.156 133.026 412.633 133.026 403.111 132.964C402.442 132.964 401.406 132.378 401.226 131.841C401.045 131.304 401.543 130.181 402.081 129.834C406.154 127.197 407.292 122.997 407.727 118.684C408.807 107.979 409.139 97.2399 406.999 86.5983C406.551 84.6233 405.883 82.705 405.006 80.8794C403.541 77.6903 401.099 75.9713 397.44 76.3278C393.782 76.6843 390.826 78.2813 389.488 81.8366C388.66 83.8737 388.2 86.0415 388.13 88.2392C388.13 98.2411 388.179 108.262 388.619 118.24C388.824 122.811 390.118 127.255 394.446 130.034C394.934 130.342 395.374 131.499 395.159 131.866C394.935 132.176 394.647 132.435 394.316 132.626C393.984 132.817 393.615 132.936 393.235 132.974C390.47 133.096 387.7 133.028 384.931 133.028C378.42 133.028 371.908 133.072 365.392 132.979C364.459 132.979 363.541 132.295 362.618 131.929C363.106 131.084 363.434 129.976 364.171 129.438C365.571 128.434 366.722 127.121 367.533 125.601C368.345 124.081 368.795 122.394 368.851 120.672C369.266 113.307 369.569 105.899 369.207 98.5439C368.983 93.8994 366.091 90.2757 362.051 87.741C361.367 87.3113 360.952 86.4615 360.415 85.7876C361.104 85.2992 361.729 84.591 362.496 84.3664C371.537 81.7585 378.849 76.5524 385.077 69.6322C385.768 68.9572 386.506 68.3321 387.285 67.7617L388.096 68.2647Z" fill="white"/>
<path d="M62.1418 133.018C56.7687 133.018 51.3957 133.067 46.0226 132.964C45.202 132.964 44.3911 132.232 43.5803 131.841C44.0004 131.123 44.2397 130.088 44.8649 129.731C48.333 127.778 49.5297 124.457 49.1585 121.029C48.5821 115.656 47.2389 110.343 46.091 105.034C45.9835 104.546 44.9578 103.867 44.3472 103.862C38.3245 103.789 32.3018 103.818 26.2742 103.862C24.3838 103.862 22.7914 104.707 22.3665 106.587C21.2186 111.881 20.0658 117.209 19.299 122.582C18.8838 125.473 19.68 128.237 22.6303 129.907C23.1578 130.2 23.5583 131.284 23.4606 131.924C23.3922 132.364 22.3811 132.969 21.7852 132.979C15.191 133.067 8.59843 133.077 2.00748 133.008C1.67648 132.941 1.36619 132.796 1.1021 132.586C0.838014 132.375 0.627673 132.105 0.488366 131.797C0.336943 131.436 0.825403 130.459 1.25525 130.264C9.44183 126.518 12.7096 118.987 15.4939 111.31C20.8034 96.688 24.9407 81.7341 26.494 66.1843C26.6869 63.8393 26.6328 61.4805 26.3328 59.1468C25.9469 55.7282 24.5597 52.798 21.5947 50.6882C20.9255 50.1998 20.6715 49.1498 20.2221 48.3538C21.0525 47.9729 21.8829 47.2647 22.7182 47.2549C31.5886 47.1719 40.4639 47.2305 49.3344 47.1768C50.8877 47.1768 51.1954 48.0266 51.4738 49.2329C53.2713 56.9931 54.893 64.8022 56.969 72.4843C60.8767 86.8229 64.8136 101.152 69.2196 115.344C71.022 121.156 74.0065 126.606 79.9657 129.585C80.5127 129.858 81.1233 131.299 80.9426 131.48C80.2929 132.154 79.3453 132.945 78.5003 132.945C73.0491 133.086 67.593 133.023 62.1418 133.018ZM34.915 59.3617C34.5187 60.0515 34.1742 60.7697 33.8844 61.5105C30.851 73.3927 27.8665 85.2845 24.7892 97.1618C24.3447 98.8662 24.7892 99.3936 26.4598 99.3692C29.879 99.3301 33.2982 99.3692 36.7174 99.3692C44.1029 99.3692 44.6647 98.6464 42.8916 91.4576C40.293 80.9673 37.6846 70.5015 34.915 59.3617Z" fill="white"/>
<path d="M464.77 68.2647C464.843 69.1145 464.989 69.9643 464.984 70.8189C464.984 84.005 464.828 97.1911 464.984 110.377C465.038 114.567 465.785 118.772 466.508 122.919C466.735 124.289 467.243 125.599 467.999 126.764C468.756 127.93 469.745 128.927 470.905 129.692C471.549 130.127 471.833 131.084 472.287 131.807C471.471 132.212 470.66 132.974 469.845 132.979C460.567 133.06 451.286 133.06 442.002 132.979C441.182 132.979 440.366 132.232 439.56 131.836C439.912 131.148 440.078 130.186 440.64 129.809C445.158 126.767 446.101 121.996 446.408 117.195C446.748 111.589 446.763 105.968 446.452 100.361C446.184 95.2229 443.732 91.0815 439.345 88.1806C438.529 87.6385 437.943 86.7399 437.25 86.0073C438.119 85.5189 438.93 84.801 439.868 84.5129C448.416 81.8806 455.528 77.0506 461.482 70.4624C462.283 69.5785 462.767 68.4064 463.397 67.3661L464.77 68.2647Z" fill="white"/>
<path d="M193.161 66.9071C192.942 65.9694 192.78 65.2759 192.536 64.2503C194.925 63.6887 197.269 63.1954 199.58 62.5899C211.337 59.4887 221.829 53.6087 232.351 47.7677C239.808 43.6231 247.327 39.5924 254.908 35.6756C257.059 34.5474 259.381 33.7771 261.78 33.3949C266.123 32.7649 268.751 35.744 267.471 39.9635C266.538 43.0549 264.872 45.907 263.475 48.8373C262.806 50.2243 261.951 51.5233 261.272 52.9103C259.949 55.611 259.489 58.3508 261.453 60.9636C263.524 63.718 266.421 65.1782 269.757 64.4896C273.321 63.7708 276.79 62.64 280.093 61.1199C287.376 57.7257 294.361 53.6819 301.702 50.4245C312.595 45.5847 323.316 46.0291 333.564 52.6173C339.465 56.4266 345.634 59.7036 352.717 60.7487C361.411 62.0331 370.082 61.5154 378.708 60.104C398.963 56.829 418.524 50.176 436.576 40.4226C436.97 40.2374 437.374 40.0743 437.787 39.9342C438.231 40.7059 438.617 41.3994 439.213 42.4347C433.923 44.9743 428.829 47.6261 423.583 49.9019C406.941 57.1681 389.309 61.912 371.269 63.9768C357.948 65.481 345.351 63.7815 333.892 56.1629C328.572 52.6368 322.877 49.8531 316.2 50.0143C310.314 50.1608 304.799 51.7822 299.592 54.3608C292.89 57.6719 286.32 61.2419 279.643 64.6166C275.447 66.7215 270.997 68.0889 266.245 67.205C259.118 65.8815 255.523 59.3031 258.302 52.6319C259.362 50.0973 260.94 47.7873 262.21 45.3063C263.104 43.6681 263.875 41.9655 264.516 40.2126C265.624 36.8966 264.345 35.5535 260.886 36.3349C259.695 36.602 258.544 37.0291 257.467 37.6047C247.219 43.0745 236.986 48.5768 226.767 54.1117C218.18 58.7806 209.403 62.9806 199.902 65.4566C197.709 66.0524 195.477 66.4187 193.161 66.9071Z" fill="white"/>
<path d="M41.5679 40.6033C42.4813 36.7549 43.341 33.1459 44.2203 29.4342C42.623 29.8347 41.2309 30.5477 40.8694 30.1961C40.1558 29.367 39.7609 28.3108 39.7557 27.217C39.6922 24.0817 39.7069 20.9903 37.0643 18.6998C36.4098 18.1284 35.7308 17.5814 35.2277 17.1663C33.8796 20.8486 32.6438 24.404 31.2858 27.9105C29.6348 32.174 31.4275 35.8368 33.1615 39.524C33.5207 40.0831 33.7091 40.7348 33.7037 41.3994C32.7268 40.7108 31.701 40.071 30.773 39.3189C23.4461 33.3363 20.823 25.7812 27.4905 15.7647C29.4689 12.9263 31.1996 9.92319 32.6633 6.78838C33.4741 4.9521 33.2592 2.66652 33.5767 0C40.0146 3.62861 41.27 9.70397 42.7109 16.2726C43.4715 15.3646 44.1638 14.4015 44.782 13.3912C45.3123 12.2144 45.7643 11.0038 46.135 9.76746C52.6169 14.7977 49.6764 34.3668 41.5679 40.6033Z" fill="white"/>
<path d="M464.984 55.8112C464.984 61.5594 460.828 65.5787 454.815 65.6226C448.802 65.6666 444.586 61.6815 444.557 55.9236C444.528 49.9312 448.65 45.7117 454.575 45.6677C460.696 45.6091 464.965 49.775 464.984 55.8112Z" fill="white"/>
<path d="M532.343 33.3266C537.657 36.5938 538.634 41.3212 539.411 46.1561L540.09 46.3954L542.752 41.4238C547.637 46.9863 545.683 59.9282 538.952 65.691L541.052 57.1054C539.797 57.2617 538.434 57.7208 538.209 57.3984C537.677 56.5172 537.422 55.4963 537.477 54.4682C537.57 51.2889 536.602 48.7738 533.857 47.2794C532.778 50.1461 531.723 52.925 530.677 55.7038C529.256 59.4936 531.132 62.6436 532.631 65.8619C527.908 64.9682 523.604 57.5596 525.016 52.2998C525.598 49.9516 526.619 47.7345 528.025 45.7654C530.707 42.2296 532.788 38.6156 532.343 33.3266Z" fill="white"/>
<path d="M125.773 164.909H210.682C211.085 164.845 211.495 164.854 211.894 164.938C212.38 165.193 212.837 165.501 213.257 165.856C212.786 166.16 212.297 166.432 211.791 166.672C211.47 166.738 211.139 166.746 210.814 166.696C183.226 166.696 155.638 166.687 128.05 166.667C127.102 166.662 125.324 167.444 125.773 164.909Z" fill="white"/>
<path d="M44.02 164.909H84.8015C85.4534 164.871 86.1073 164.892 86.7553 164.972C87.0533 165.026 87.5418 165.505 87.4929 165.666C87.4423 165.87 87.3485 166.06 87.2179 166.224C87.0873 166.389 86.9229 166.523 86.7358 166.618C86.0904 166.726 85.4339 166.753 84.782 166.696H2.74026C2.17595 166.767 1.60398 166.749 1.0453 166.643C0.634998 166.506 0.341922 166.003 0 165.666C0.30351 165.362 0.661435 165.119 1.05507 164.948C1.61843 164.871 2.18863 164.858 2.75491 164.909H44.02Z" fill="white"/>
<path d="M126.262 146.883C126.716 146.365 126.97 145.804 127.337 145.711C128.058 145.593 128.791 145.564 129.52 145.623H211.293C211.781 145.562 212.274 145.574 212.758 145.657C213.277 145.876 213.769 146.155 214.224 146.487C213.735 146.746 213.247 147.235 212.758 147.235C184.281 147.257 155.804 147.257 127.327 147.235C126.962 147.151 126.605 147.033 126.262 146.883Z" fill="white"/>
<path d="M44.5913 147.264H3.80493C3.15366 147.318 2.49841 147.3 1.85109 147.21C1.50917 147.137 1.25517 146.673 0.962097 146.38C1.22587 146.141 1.45056 145.76 1.76806 145.686C2.33071 145.604 2.90065 145.583 3.4679 145.623H86.0176C86.4207 145.57 86.8295 145.582 87.229 145.657C87.6743 145.866 88.0953 146.123 88.4843 146.424C88.1423 146.757 87.7458 147.03 87.312 147.23C86.7493 147.314 86.1782 147.327 85.6122 147.269L44.5913 147.264Z" fill="white"/>
<path d="M291.933 152.436C291.933 155.649 292.075 158.57 291.889 161.466C291.718 164.157 290.257 165.402 287.493 165.749C284.855 166.081 283.238 165.143 281.973 162.213C283.224 162.33 284.381 162.164 285.29 162.57C287.761 163.678 288.128 163.615 289.139 160.792C288.436 160.997 287.801 161.417 287.336 161.28C285.788 160.816 283.717 160.562 282.94 159.459C282.09 158.247 281.9 155.957 282.452 154.575C282.906 153.447 284.836 152.719 286.252 152.24C287.024 151.982 288.089 152.753 289.031 152.807C290.008 152.772 290.979 152.648 291.933 152.436ZM289.388 157.373C289.388 157.07 289.417 156.773 289.427 156.47C288.655 155.942 287.844 154.951 287.122 155.005C286.277 155.073 285.51 156.064 284.709 156.655C285.378 157.329 285.988 158.467 286.721 158.555C287.551 158.658 288.494 157.813 289.388 157.373Z" fill="white"/>
<path d="M453.344 152.758C453.344 155.815 453.447 158.814 453.31 161.798C453.203 164.113 451.547 165.451 448.851 165.759C446.154 166.066 444.498 165.07 443.522 162.14C444.845 162.384 446.042 162.364 447.004 162.833C449.022 163.81 449.818 163.453 450.296 161.368C448.68 161.139 446.926 161.202 445.47 160.572C444.542 160.172 443.776 158.829 443.434 157.754C442.486 154.726 444.782 151.967 447.942 152.177C449.652 152.275 451.371 152.533 453.344 152.758ZM450.814 157.197L450.785 156.221C449.906 155.771 448.992 154.912 448.157 154.99C447.415 155.053 446.765 156.152 446.076 156.792C446.887 157.422 447.634 158.423 448.518 158.565C449.197 158.677 450.042 157.696 450.814 157.197Z" fill="white"/>
<path d="M242.325 152.753C242.325 155.82 242.427 158.814 242.291 161.798C242.183 164.118 240.522 165.456 237.826 165.759C235.13 166.061 233.454 165.041 232.482 162.11C233.806 162.36 235.003 162.345 235.965 162.809C237.978 163.786 238.779 163.424 239.252 161.344C237.631 161.114 235.877 161.178 234.422 160.543C233.494 160.142 232.727 158.799 232.39 157.725C231.442 154.697 233.743 151.943 236.903 152.153C238.637 152.275 240.356 152.533 242.325 152.753ZM237.216 159.503C238.256 158.33 239.482 157.481 239.35 156.973C239.145 156.152 238.109 155.112 237.308 155.019C236.644 154.926 235.174 156.074 235.203 156.606C235.247 157.427 236.258 158.233 237.216 159.503Z" fill="white"/>
<path d="M470.45 152.743C470.45 155.962 470.655 159.205 470.387 162.413C470.177 164.855 468.008 165.519 465.908 165.749C463.495 166.013 461.638 165.163 460.481 162.154C461.946 162.36 463.133 162.277 464.086 162.721C466.23 163.737 466.87 163.527 467.666 160.821C466.977 161.026 466.337 161.451 465.878 161.31C464.335 160.821 462.274 160.513 461.516 159.39C460.691 158.16 460.539 155.864 461.135 154.472C461.624 153.354 463.578 152.47 464.989 152.255C466.718 151.991 468.57 152.538 470.45 152.743ZM467.945 157.549L468.062 156.626C467.339 156.055 466.596 155.005 465.898 155.029C465.019 155.063 464.164 155.972 463.299 156.494C463.929 157.212 464.467 158.379 465.209 158.526C466.04 158.721 467.041 157.92 467.945 157.549Z" fill="white"/>
<path d="M314.881 162.057C316.41 162.311 317.582 162.267 318.515 162.711C320.664 163.742 321.294 163.532 322.105 160.826C321.421 161.026 320.781 161.451 320.322 161.314C318.784 160.826 316.712 160.523 315.96 159.4C315.13 158.169 314.983 155.874 315.569 154.487C316.058 153.369 318.012 152.475 319.414 152.26C321.148 151.996 322.999 152.548 324.889 152.748C324.889 155.957 325.09 159.205 324.821 162.408C324.616 164.85 322.452 165.519 320.351 165.754C317.939 166.017 316.077 165.168 314.881 162.057ZM322.501 157.144C322.501 156.841 322.501 156.538 322.462 156.23C321.573 155.781 320.649 154.926 319.804 154.995C319.077 155.053 318.437 156.167 317.758 156.816C318.569 157.442 319.326 158.448 320.2 158.565C320.889 158.663 321.729 157.661 322.501 157.144Z" fill="white"/>
<path d="M407.288 160.621V164.713L404.469 164.85V152.416C406.643 152.245 408.772 151.83 410.868 151.977C413.447 152.153 415.171 154.907 414.688 157.554C414.572 158.175 414.333 158.767 413.984 159.294C413.634 159.82 413.182 160.271 412.655 160.619C412.127 160.967 411.535 161.204 410.913 161.318C410.291 161.432 409.653 161.419 409.036 161.28C408.442 161.093 407.858 160.873 407.288 160.621ZM412.123 157.202C412.123 156.9 412.123 156.592 412.123 156.289C411.2 155.664 410.301 154.609 409.349 154.565C408.68 154.536 407.947 155.874 407.239 156.602C407.991 157.295 408.704 158.438 409.52 158.555C410.336 158.672 411.254 157.715 412.123 157.217V157.202Z" fill="white"/>
<path d="M337.008 152.709V160.973C335 161.231 333.071 161.666 331.146 161.681C329.222 161.695 327.434 160.601 327.175 158.697C326.946 157.012 327.175 154.79 328.152 153.564C328.934 152.587 331.127 152.563 332.724 152.416C334.067 152.294 335.474 152.587 337.008 152.709ZM331.943 153.969C330.883 155.273 329.823 156.016 329.779 156.812C329.75 157.403 331.073 158.599 331.733 158.56C332.578 158.511 333.364 157.49 334.175 156.885L331.943 153.969Z" fill="white"/>
<path d="M510.582 152.734C510.582 155.151 510.626 157.559 510.543 159.966C510.543 160.391 510.055 161.104 509.698 161.148C507.842 161.402 505.932 161.759 504.091 161.563C501.326 161.266 499.694 158.335 500.373 155.532C501.038 152.885 503.475 151.625 506.235 152.333C507.554 152.665 508.975 152.602 510.582 152.734ZM505.429 159.615C506.469 158.282 507.661 157.378 507.529 156.763C507.368 156.006 506.123 155.063 505.287 155.005C504.623 154.956 503.275 156.128 503.299 156.719C503.324 157.515 504.379 158.277 505.429 159.615Z" fill="white"/>
<path d="M313.498 157.505H307.012C306.953 157.769 306.899 158.037 306.841 158.301C307.774 158.477 308.711 158.819 309.64 158.79C310.719 158.76 311.789 158.409 313.083 158.155C311.813 160.914 309.615 161.93 307.251 161.129C304.77 160.289 303.343 157.871 303.969 155.61C304.579 153.442 307.212 151.83 309.537 152.192C312.17 152.621 313.679 154.565 313.498 157.505Z" fill="white"/>
<path d="M357.553 157.407C359.692 160.504 362.051 157.271 363.903 158.589C362.926 160.85 360.762 161.886 358.481 161.192C356.107 160.47 354.534 158.164 354.959 156.035C355.244 154.884 355.921 153.868 356.874 153.161C357.827 152.455 358.996 152.101 360.18 152.162C362.857 152.343 364.513 154.155 364.752 157.407H357.553Z" fill="white"/>
<path d="M482.061 157.52H475.389C475.33 157.783 475.276 158.047 475.223 158.311C476.146 158.497 477.084 158.853 478.002 158.799C479.072 158.765 480.127 158.389 481.421 158.116C480.386 160.723 478.202 161.847 475.95 161.222C473.474 160.538 471.93 158.252 472.36 155.918C472.775 153.691 475.208 151.943 477.606 152.143C480.268 152.372 481.939 154.277 482.061 157.52Z" fill="white"/>
<path d="M528.45 161.407C525.729 161.407 523.365 159.346 523.302 156.885C523.228 154.345 525.685 152.109 528.494 152.153C531.303 152.196 533.486 154.292 533.471 156.802C533.457 159.312 531.215 161.388 528.45 161.407ZM528.391 159.39C529.368 158.316 530.56 157.476 530.438 156.948C530.243 156.138 529.129 154.995 528.421 154.995C527.712 154.995 526.56 156.084 526.32 156.904C526.179 157.412 527.429 158.296 528.391 159.39Z" fill="white"/>
<path d="M483.849 152.167C485.705 152.167 487.458 152.069 489.222 152.196C491.176 152.338 492.372 153.456 492.441 155.483C492.504 157.344 492.441 159.205 492.441 161.241H489.593C489.665 159.693 489.644 158.142 489.53 156.597C489.456 155.991 488.694 155.469 488.25 154.907C487.693 155.454 486.75 155.937 486.652 156.558C486.418 158.052 486.579 159.605 486.579 161.295L483.859 161.436L483.849 152.167Z" fill="white"/>
<path d="M438.705 161.451C438.705 159.683 438.857 158.213 438.642 156.797C438.539 156.113 437.753 155.537 437.279 154.917C436.737 155.561 435.858 156.143 435.731 156.87C435.481 158.272 435.657 159.752 435.657 161.305H432.932V152.177C434.793 152.177 436.576 152.079 438.349 152.177C440.22 152.304 441.372 153.442 441.499 155.298C441.626 157.153 441.533 159.17 441.533 161.261L438.705 161.451Z" fill="white"/>
<path d="M277.235 161.256C277.235 159.512 277.367 157.954 277.162 156.445C277.089 155.879 276.234 155.41 275.736 154.897C275.213 155.386 274.329 155.874 274.27 156.436C274.06 157.94 274.202 159.498 274.202 161.222H271.447V152.24C273.43 152.24 275.433 152.074 277.391 152.289C278.984 152.465 279.99 153.598 280.029 155.303C280.073 157.256 280.029 159.17 280.029 161.256H277.235Z" fill="white"/>
<path d="M543.778 161.3H541.047C541.13 159.801 541.107 158.298 540.979 156.802C540.881 156.118 540.1 155.532 539.621 154.897C539.054 155.532 538.156 156.094 537.999 156.807C537.741 158.208 537.921 159.688 537.921 161.275H535.24V152.187C537.101 152.187 538.957 152.065 540.793 152.221C542.498 152.363 543.68 153.359 543.758 155.185C543.846 157.129 543.778 159.073 543.778 161.3Z" fill="white"/>
<path d="M385.248 152.192C387.202 152.192 389.063 152.06 390.905 152.231C392.609 152.392 393.747 153.437 393.835 155.263C393.899 157.217 393.835 159.136 393.835 161.241H391.11C391.11 160.137 391.178 159.029 391.11 157.935C391.012 156.753 391.598 155.005 389.605 154.946C387.612 154.887 388.028 156.607 387.979 157.842C387.93 158.96 387.979 160.079 387.979 161.305H385.248V152.192Z" fill="white"/>
<path d="M244.797 152.397C246.677 152.314 248.348 152.133 250.008 152.192C251.845 152.255 253.125 153.251 253.247 155.166C253.379 157.168 253.276 159.185 253.276 161.3H250.58C250.58 159.771 250.756 158.301 250.511 156.904C250.384 156.172 249.535 155.566 248.992 154.902C248.47 155.581 247.63 156.206 247.488 156.958C247.244 158.286 247.42 159.693 247.42 161.295L244.811 161.422L244.797 152.397Z" fill="white"/>
<path d="M348.985 157.412C347.109 160.831 344.828 161.944 342.371 161.187C340.159 160.504 338.659 158.54 338.806 156.504C338.957 154.37 340.833 152.49 343.124 152.187C345.566 151.864 347.627 153.222 348.589 156.152C347.295 155.791 346.318 155.386 345.292 155.303C344.246 155.175 343.185 155.297 342.195 155.659C341.897 155.781 341.883 157.754 342.195 157.891C343.177 158.277 344.238 158.421 345.287 158.311C346.318 158.233 347.324 157.832 348.985 157.412Z" fill="white"/>
<path d="M100.378 146.512C103.632 145.594 105.659 143.582 106.592 140.29C107.569 143.645 109.874 145.354 113.215 146.468C109.855 147.567 107.622 149.252 106.557 152.69C105.727 149.335 103.72 147.352 100.378 146.512Z" fill="white"/>
<path d="M106.191 160.22L112.126 166.164C109.513 166.696 107.525 168.679 106.626 172C105.688 168.787 103.783 166.789 100.413 165.807C103.666 164.894 105.678 162.941 106.191 160.22Z" fill="white"/>
<path d="M365.72 158.365L370.301 158.877L370.477 158.267C369.666 157.91 368.763 157.686 368.074 157.168C367.258 156.548 365.954 155.537 366.076 154.951C366.251 154.408 366.535 153.906 366.91 153.476C367.286 153.046 367.745 152.697 368.26 152.45C370.311 151.474 372.118 152.543 372.973 155.073L369.007 154.668L368.802 155.156C369.415 155.47 370.048 155.744 370.697 155.976C372.162 156.411 373.906 157.007 373.188 158.785C372.729 159.913 371.132 160.973 369.857 161.285C368.137 161.695 366.57 160.841 365.72 158.365Z" fill="white"/>
<path d="M395.32 158.345L399.946 158.916L400.141 158.335C399.34 157.979 398.442 157.754 397.768 157.232C396.898 156.553 395.442 155.376 395.608 154.883C396.086 153.744 396.991 152.837 398.129 152.358C400.122 151.566 401.812 152.709 402.525 155.097L398.515 154.658L398.354 155.146C399.165 155.464 400.083 155.635 400.767 156.123C401.612 156.733 402.916 157.681 402.847 158.36C402.745 159.336 401.744 160.499 400.815 160.987C398.637 162.14 396.629 161.163 395.32 158.345Z" fill="white"/>
<path d="M552.736 155.136L548.662 154.648L548.472 155.176C549.109 155.48 549.761 155.753 550.426 155.991C551.794 156.421 553.22 156.846 552.995 158.667C552.77 160.489 551.329 161.222 549.693 161.349C547.803 161.49 546.176 160.977 545.527 158.418L550.001 158.907L550.206 158.345C549.42 157.984 548.526 157.754 547.871 157.227C547.016 156.538 545.595 155.366 545.766 154.848C545.987 154.281 546.325 153.766 546.759 153.337C547.192 152.909 547.711 152.577 548.281 152.363C550.172 151.791 551.96 152.338 552.736 155.136Z" fill="white"/>
<path d="M263.558 161.353H260.984C260.984 159.708 261.091 158.111 260.94 156.538C260.857 155.708 260.266 154.936 260.017 154.096C259.792 153.55 259.738 152.95 259.861 152.372C260.336 151.34 260.875 150.338 261.477 149.374C261.331 149.193 261.179 149.017 261.033 148.841L262.986 148.729C263.856 150.248 264.544 151.4 265.174 152.587C265.311 152.846 265.35 153.403 265.174 153.525C262.542 155.644 264.544 158.672 263.558 161.353Z" fill="white"/>
<path d="M514.235 148.836H515.515C516.228 150.302 516.824 151.454 517.385 152.646C517.483 152.846 517.547 153.232 517.434 153.344C515.241 155.6 516.653 158.516 515.969 161.251L513.356 161.48C513.356 160.015 513.434 158.653 513.356 157.32C513.268 156.162 514.035 154.663 512.209 154.018C512.008 153.945 511.925 152.9 512.126 152.465C512.604 151.396 513.303 150.419 514.235 148.836Z" fill="white"/>
<path d="M494.658 152.201H499.498C499.566 153.32 500.377 154.668 498.321 155.332C497.833 155.493 497.476 156.621 497.393 157.339C497.302 158.656 497.287 159.977 497.349 161.295H494.658V152.201Z" fill="white"/>
<path d="M426.273 152.24C426.273 153.373 427.074 154.78 424.979 155.371C424.52 155.503 424.202 156.685 424.119 157.417C424.034 158.687 424.021 159.96 424.08 161.231H421.365V152.24H426.273Z" fill="white"/>
<path d="M299.465 148.827H301.907V161.27H299.465V148.827Z" fill="white"/>
<path d="M521.494 152.314V161.251L518.954 161.461V152.314H521.494Z" fill="white"/>
<path d="M353.156 161.305H350.568V152.25H353.156V161.305Z" fill="white"/>
<path d="M227.886 152.231H230.455V161.305L227.886 161.436V152.231Z" fill="white"/>
<path d="M269.107 161.339H266.562V152.27H269.107V161.339Z" fill="white"/>
<path d="M258.209 161.339H255.67V152.314H258.209V161.339Z" fill="white"/>
<path d="M416.558 152.211H419.044V161.295L416.558 161.432V152.211Z" fill="white"/>
<path d="M428.086 152.206H430.562V161.27L428.086 161.451V152.206Z" fill="white"/>
<path d="M380.373 152.27H382.923V161.29H380.373V152.27Z" fill="white"/>
<path d="M122.291 97.0836C118.486 98.1776 116.063 100.322 115.159 104.224C114.031 100.502 111.813 98.1043 107.979 97.1618C111.745 96.1508 114.085 93.9141 115.027 90.0755C116.253 93.7285 118.266 96.3462 122.291 97.0836Z" fill="white"/>
</g>
<defs>
<clipPath id="clip0_352_189">
<rect width="553" height="172" fill="white"/>
</clipPath>
</defs>
</svg>
