<svg width="300" height="230" viewBox="0 0 300 230" fill="none" xmlns="http://www.w3.org/2000/svg">
<g clip-path="url(#clip0_204_991)">
<g clip-path="url(#clip1_204_991)">
<mask id="mask0_204_991" style="mask-type:luminance" maskUnits="userSpaceOnUse" x="8" y="0" width="284" height="181">
<path d="M291.366 0.0315094H8.63379V180.952H291.366V0.0315094Z" fill="white"/>
</mask>
<g mask="url(#mask0_204_991)">
<path d="M71.4016 30.1801L18.6646 65.4539L70.6038 143.107L123.341 107.834L71.4016 30.1801Z" fill="#F5F5F5"/>
<path d="M96.0953 104.147L95.4967 107.851L69.2803 104.074L69.8789 100.37L96.0953 104.147Z" fill="#E0E0E0"/>
<path d="M82.8931 90.9382L86.6552 91.4803L82.4845 117.292L78.7224 116.75L82.8931 90.9382Z" fill="#E0E0E0"/>
<mask id="mask1_204_991" style="mask-type:luminance" maskUnits="userSpaceOnUse" x="8" y="0" width="284" height="181">
<path d="M291.366 0.0315094H8.63379V180.952H291.366V0.0315094Z" fill="white"/>
</mask>
<g mask="url(#mask1_204_991)">
<path d="M58.7492 58.1304C58.7868 58.1869 53.5016 61.7876 46.9463 66.1721C40.3909 70.5565 35.0435 74.0671 35.0058 74.0106C34.9681 73.9541 40.2517 70.3542 46.8095 65.9681C53.3673 61.5821 58.7107 58.0731 58.7483 58.1296" fill="#E0E0E0"/>
<path d="M78.1393 53.2628C78.1769 53.3193 69.3884 59.2638 58.5125 66.5381C47.6367 73.8125 38.7851 79.6684 38.7474 79.6103C38.7098 79.5522 47.4966 73.6118 58.3766 66.3342C69.2566 59.0566 78.1024 53.2071 78.1401 53.2628" fill="#E0E0E0"/>
<path d="M82.0265 59.0754C82.0641 59.1319 73.2756 65.0764 62.3997 72.3507C51.5239 79.625 42.6723 85.4794 42.6346 85.4262C42.597 85.3729 51.3838 79.4277 62.2638 72.1501C73.1438 64.8725 81.9896 59.0222 82.0273 59.0779" fill="#E0E0E0"/>
<path d="M85.9146 64.8872C85.9523 64.9437 77.1638 70.8881 66.2879 78.1625C55.412 85.4368 46.5605 91.292 46.5228 91.2355C46.4852 91.179 55.272 85.2362 66.152 77.9594C77.032 70.6826 85.8778 64.8315 85.9155 64.888" fill="#E0E0E0"/>
<path d="M89.8021 70.6998C89.8398 70.7563 81.0513 76.7007 70.1754 83.9751C59.2995 91.2494 50.4479 97.1054 50.4103 97.0473C50.3726 96.9891 59.1595 91.0488 70.0394 83.7712C80.9194 76.4935 89.7652 70.6441 89.8029 70.6998" fill="#E0E0E0"/>
<path d="M237.118 105.697C237.155 105.754 232.721 108.785 227.216 112.468C221.71 116.15 217.215 119.091 217.177 119.035C217.139 118.978 221.572 115.947 227.08 112.264C232.587 108.58 237.08 105.642 237.118 105.697Z" fill="#E0E0E0"/>
<path d="M253.405 101.609C253.443 101.666 246.067 106.664 236.932 112.774C227.797 118.884 220.36 123.794 220.322 123.737C220.284 123.681 227.658 118.683 236.796 112.571C245.933 106.46 253.367 101.554 253.405 101.609Z" fill="#E0E0E0"/>
<path d="M256.67 106.488C256.707 106.544 249.331 111.544 240.197 117.653C231.063 123.762 223.624 128.672 223.587 128.615C223.549 128.559 230.923 123.561 240.06 117.449C249.198 111.338 256.632 106.432 256.669 106.488" fill="#E0E0E0"/>
<path d="M259.935 111.372C259.972 111.428 252.596 116.427 243.462 122.537C234.328 128.646 226.889 133.556 226.852 133.499C226.814 133.443 234.188 128.445 243.326 122.333C252.463 116.222 259.897 111.316 259.935 111.372Z" fill="#E0E0E0"/>
<path d="M263.2 116.252C263.237 116.309 255.862 121.307 246.728 127.417C237.593 133.527 230.155 138.436 230.117 138.38C230.079 138.323 237.453 133.326 246.591 127.214C255.728 121.103 263.162 116.197 263.199 116.252" fill="#E0E0E0"/>
<path d="M129.35 7.18057L91.2949 78.3385L139.621 104.183L177.676 33.0254L129.35 7.18057Z" fill="#F5F5F5"/>
<path d="M131.348 81.9237L128.282 82.9735L120.502 61.4593L123.568 60.4094L131.348 81.9237Z" fill="#E0E0E0"/>
<path d="M136.048 66.4914L137.165 69.5787L115.799 76.8915L114.682 73.8043L136.048 66.4914Z" fill="#E0E0E0"/>
<path d="M151.23 34.7474C151.192 34.8186 146.29 32.2702 140.284 29.0576C134.277 25.845 129.435 23.182 129.472 23.1083C129.51 23.0346 134.41 25.5846 140.42 28.7988C146.429 32.013 151.267 34.6737 151.229 34.7441" fill="#E0E0E0"/>
<path d="M162.826 47.5469C162.789 47.6181 154.677 43.3533 144.711 38.023C134.744 32.6927 126.695 28.3124 126.73 28.242C126.765 28.1716 134.878 32.4348 144.847 37.7667C154.817 43.0986 162.863 47.4764 162.826 47.5469Z" fill="#E0E0E0"/>
<path d="M159.977 52.873C159.94 52.9443 151.828 48.6794 141.861 43.3492C131.895 38.0189 123.846 33.6386 123.881 33.5682C123.916 33.4977 132.029 37.761 141.998 43.0928C151.968 48.4247 160.014 52.8026 159.977 52.873Z" fill="#E0E0E0"/>
<path d="M157.129 58.1992C157.091 58.2704 148.979 54.0056 139.013 48.6753C129.047 43.3451 120.997 38.9647 121.033 38.8943C121.068 38.8239 129.181 43.0871 139.15 48.419C149.119 53.7509 157.166 58.1288 157.129 58.1992Z" fill="#E0E0E0"/>
<path d="M154.28 63.5245C154.243 63.5958 146.131 59.3309 136.164 54.0007C126.198 48.6704 118.148 44.2901 118.184 44.2197C118.219 44.1492 126.332 48.4125 136.301 53.7444C146.271 59.0762 154.317 63.4541 154.28 63.5245Z" fill="#E0E0E0"/>
</g>
<mask id="mask2_204_991" style="mask-type:luminance" maskUnits="userSpaceOnUse" x="8" y="0" width="284" height="181">
<path d="M291.366 0.0315094H8.63379V180.952H291.366V0.0315094Z" fill="white"/>
</mask>
<g mask="url(#mask2_204_991)">
<path d="M279.985 179.432C279.985 179.5 219.236 179.554 144.316 179.554C69.3696 179.554 8.63379 179.5 8.63379 179.432C8.63379 179.364 69.3696 179.31 144.316 179.31C219.236 179.31 279.985 179.364 279.985 179.432Z" fill="#263238"/>
</g>
<mask id="mask3_204_991" style="mask-type:luminance" maskUnits="userSpaceOnUse" x="8" y="0" width="284" height="181">
<path d="M291.366 0.0315094H8.63379V180.952H291.366V0.0315094Z" fill="white"/>
</mask>
<g mask="url(#mask3_204_991)">
<path d="M108.569 82.9465L91.9454 168.394L89.7695 179.579L200.721 179.032C205.7 179.007 210.113 174.586 211.714 168.018L231.389 87.3473C232.605 82.3602 229.936 77.1741 226.156 77.1782L113.86 77.2953C111.38 77.2953 109.213 79.6111 108.564 82.9457" fill="#E8505B"/>
<path d="M108.569 82.9465L91.9454 168.394L89.7695 179.579L200.721 179.032C205.7 179.007 210.113 174.586 211.714 168.018L231.389 87.3473C232.605 82.3602 229.936 77.1741 226.156 77.1782L113.86 77.2953C111.38 77.2953 109.213 79.6111 108.564 82.9457" fill="#D19A08" fill-opacity="0.95"/>
<path d="M190.082 162.604L178.335 67.9384C178.166 66.1239 177.339 64.434 176.009 63.1884C174.678 61.9427 172.938 61.2276 171.116 61.1784L145.357 61.2603C144.399 61.2696 143.454 61.4746 142.579 61.8627C141.704 62.2509 140.918 62.8139 140.268 63.5172L128.036 76.5197L56.3949 76.8932C52.0171 76.9161 48.6538 81.0581 49.2336 85.7128L60.1398 173.211C60.3092 175.023 61.1356 176.71 62.463 177.954C63.7905 179.199 65.5274 179.914 67.3462 179.966L192.202 179.721C206.108 180.009 207.434 175.902 207.434 175.902C191.497 179.434 190.078 162.616 190.073 162.606" fill="#FFD700"/>
<g opacity="0.5">
<mask id="mask4_204_991" style="mask-type:luminance" maskUnits="userSpaceOnUse" x="99" y="113" width="38" height="37">
<path d="M136.246 113.48H99.6028V149.184H136.246V113.48Z" fill="white"/>
</mask>
<g mask="url(#mask4_204_991)">
<path d="M136.245 143.659L132.035 148.181L99.606 119.005L103.818 114.483L136.245 143.659Z" fill="white"/>
<path d="M130.27 113.48L134.924 117.667L105.579 149.185L100.925 144.997L130.27 113.48Z" fill="white"/>
</g>
</g>
</g>
</g>
<path d="M151.425 15.3909H168.105C168.739 15.39 169.346 15.1378 169.795 14.6896C170.243 14.2413 170.495 13.6336 170.496 12.9997V12.0653C170.495 11.4314 170.243 10.8237 169.795 10.3754C169.346 9.92717 168.739 9.67496 168.105 9.6741H151.425C150.791 9.67496 150.184 9.92717 149.736 10.3754C149.287 10.8237 149.035 11.4314 149.034 12.0653V12.9997C149.035 13.6336 149.287 14.2413 149.736 14.6896C150.184 15.1378 150.791 15.39 151.425 15.3909Z" fill="#E6E6E6"/>
<path d="M91.6348 39.8549H108.314C108.948 39.8542 109.556 39.6021 110.004 39.1538C110.453 38.7055 110.705 38.0976 110.706 37.4637V36.5293C110.705 35.8954 110.452 35.2876 110.004 34.8394C109.556 34.3911 108.948 34.1389 108.314 34.1381H91.6348C91.0009 34.1389 90.3933 34.3911 89.945 34.8394C89.4968 35.2876 89.2445 35.8954 89.2437 36.5293V37.4637C89.2443 38.0976 89.4965 38.7055 89.9448 39.1538C90.393 39.6021 91.0009 39.8542 91.6348 39.8549Z" fill="#E6E6E6"/>
<path d="M91.6348 51.6635H108.314C108.948 51.6626 109.556 51.4104 110.004 50.9622C110.452 50.5139 110.705 49.9062 110.706 49.2723V48.3379C110.705 47.704 110.452 47.0963 110.004 46.648C109.556 46.1998 108.948 45.9476 108.314 45.9467H91.6348C91.0009 45.9474 90.393 46.1995 89.9448 46.6478C89.4965 47.0961 89.2443 47.7039 89.2437 48.3379V49.2723C89.2443 49.9063 89.4965 50.5141 89.9448 50.9624C90.393 51.4107 91.0009 51.6628 91.6348 51.6635Z" fill="#E6E6E6"/>
<path d="M236.911 175.175H232.024L230.496 156.325H236.912L236.911 175.175Z" fill="#FFB8B8"/>
<path d="M238.158 173.578H228.532C226.906 173.578 225.346 174.224 224.196 175.374C223.046 176.525 222.399 178.085 222.399 179.711V179.91H238.158V173.578Z" fill="#2F2E41"/>
<path d="M263.218 175.175H258.331L256.006 156.325H263.218V175.175Z" fill="#FFB8B8"/>
<path d="M264.466 173.578H254.842C253.215 173.578 251.655 174.224 250.505 175.374C249.355 176.525 248.708 178.085 248.708 179.711V179.91H264.467L264.466 173.578Z" fill="#2F2E41"/>
<path d="M262.351 169.22C262.85 169.22 263.329 169.033 263.696 168.696C263.893 168.516 264.051 168.299 264.162 168.056C264.272 167.814 264.333 167.552 264.34 167.286L266.3 97.0415L238.474 104.002L229.888 129.759C228.781 133.073 228.302 136.564 228.475 140.053L229.54 165.02C229.564 165.531 229.784 166.013 230.155 166.367C230.526 166.72 231.018 166.917 231.53 166.916H236.198C236.68 166.914 237.145 166.739 237.507 166.422C237.87 166.105 238.107 165.668 238.173 165.191L241.509 137.631C241.801 135.481 242.553 133.419 243.715 131.586L250.28 121.192C250.324 121.122 250.388 121.068 250.464 121.037C250.54 121.005 250.624 120.998 250.704 121.016C250.784 121.034 250.857 121.076 250.912 121.137C250.968 121.198 251.003 121.274 251.013 121.356L256.165 167.23C256.22 167.695 256.437 168.126 256.779 168.447C257.121 168.767 257.565 168.957 258.033 168.982L262.238 169.217C262.275 169.218 262.314 169.22 262.351 169.22Z" fill="#2F2E41"/>
<path d="M243.104 51.5703C248.511 51.5703 252.894 47.1869 252.894 41.7798C252.894 36.3726 248.511 31.9893 243.104 31.9893C237.697 31.9893 233.313 36.3726 233.313 41.7798C233.313 47.1869 237.697 51.5703 243.104 51.5703Z" fill="#FFB8B8"/>
<path d="M238.606 106.858C238.775 106.857 238.942 106.836 239.106 106.794L266.715 99.7144C267.209 99.588 267.635 99.2773 267.907 98.8461C268.178 98.4148 268.274 97.896 268.175 97.3961L261.834 63.2396C261.439 61.2652 260.571 59.4162 259.304 57.8513C258.037 56.2864 256.409 55.0525 254.56 54.2553C252.758 53.458 250.788 53.1164 248.823 53.2606C246.859 53.4049 244.959 54.0306 243.294 55.0824C242.907 55.3232 242.518 55.5869 242.136 55.8637C240.602 56.9954 239.351 58.4672 238.481 60.1637C237.611 61.8601 237.146 63.735 237.122 65.6414L236.618 104.836C236.614 105.099 236.663 105.361 236.762 105.606C236.86 105.85 237.006 106.073 237.191 106.261C237.376 106.449 237.596 106.598 237.839 106.7C238.082 106.803 238.343 106.857 238.606 106.858Z" fill="#D19A08" fill-opacity="0.95"/>
<path d="M263.872 107.26C264.201 106.775 264.42 106.224 264.514 105.646C264.607 105.067 264.572 104.475 264.412 103.911C264.252 103.348 263.97 102.826 263.587 102.383C263.203 101.94 262.727 101.586 262.192 101.347L263.421 87.1565L256.913 90.6835L256.744 103.622C256.405 104.547 256.416 105.563 256.775 106.48C257.134 107.397 257.817 108.15 258.694 108.598C259.57 109.046 260.581 109.158 261.534 108.912C262.488 108.666 263.318 108.079 263.869 107.263L263.872 107.26Z" fill="#FFB8B8"/>
<path d="M261.547 99.4712C262.036 99.4712 262.511 99.3082 262.896 99.0079C263.282 98.7077 263.556 98.2875 263.676 97.8137L266.874 85.1043C267.992 80.6656 267.459 75.9722 265.375 71.897L258.674 58.7904C258.251 57.2212 257.227 55.8814 255.825 55.0599C254.422 54.2383 252.753 54.0008 251.177 54.3986C250.392 54.5969 249.654 54.9492 249.005 55.435C248.357 55.9208 247.811 56.5305 247.401 57.2287C246.981 57.9371 246.707 58.7219 246.594 59.5373C246.48 60.3528 246.531 61.1826 246.741 61.9784L256.279 83.306L256.166 96.0752C256.163 96.5257 256.299 96.9662 256.554 97.3371C256.81 97.7081 257.173 97.9916 257.595 98.1495L260.789 99.3344C261.031 99.4246 261.288 99.4709 261.547 99.4712Z" fill="#D19A08" fill-opacity="0.95"/>
<path d="M215.896 102.041C216.478 101.974 217.038 101.781 217.538 101.474C218.037 101.168 218.463 100.755 218.786 100.266C219.109 99.7772 219.32 99.2233 219.406 98.6436C219.491 98.0639 219.449 97.4725 219.281 96.911L230.839 88.584L223.921 85.9527L214.006 94.2634C213.079 94.6059 212.31 95.2772 211.846 96.1496C211.381 97.022 211.254 98.0346 211.487 98.9951C211.72 99.9555 212.298 100.797 213.111 101.359C213.924 101.921 214.916 102.164 215.897 102.043L215.896 102.041Z" fill="#FFB8B8"/>
<path d="M221.945 95.9597C222.286 95.9596 222.622 95.8803 222.928 95.728L234.646 89.8613C238.739 87.8125 241.949 84.3469 243.679 80.109L249.242 66.4808C250.155 65.1359 250.503 63.4862 250.211 61.8872C249.919 60.2883 249.01 58.8681 247.681 57.933C247.016 57.4659 246.266 57.1357 245.472 56.9616C244.679 56.7875 243.859 56.7731 243.06 56.9192C242.252 57.0646 241.481 57.3688 240.791 57.8144C240.101 58.26 239.507 58.8381 239.042 59.5151L229.099 80.6593L219.347 88.904C219.003 89.1956 218.758 89.5857 218.643 90.0214C218.529 90.4571 218.551 90.9175 218.706 91.3403L219.89 94.534C220.046 94.9537 220.326 95.3156 220.694 95.5712C221.061 95.8268 221.498 95.9638 221.946 95.9638L221.945 95.9597Z" fill="#D19A08" fill-opacity="0.95"/>
<path d="M245.16 51.7192C244.64 51.9468 243.575 47.8023 244.052 46.9695C244.762 45.7371 244.72 45.7453 245.191 44.9296C245.451 44.5351 245.587 44.0718 245.581 43.5995C245.575 43.1272 245.427 42.6675 245.158 42.2796C244.548 41.5623 243.136 41.6573 242.857 42.5573C243.037 40.8482 241.346 39.4741 239.671 39.0884C237.996 38.7027 236.232 38.9418 234.546 38.597C232.592 38.1982 230.559 36.5604 231.339 34.4116C231.473 34.0538 231.673 33.7245 231.929 33.4412C232.876 32.5324 234.047 31.8895 235.322 31.5773C237.885 30.7077 240.518 29.8265 243.223 29.9223C245.451 30.0388 247.598 30.8026 249.399 32.12C251.201 33.4374 252.579 35.2514 253.366 37.34C253.552 37.8624 253.696 38.3988 253.797 38.9442C254.211 41.3815 253.773 43.887 252.556 46.0392C251.34 48.1915 249.42 49.8591 247.118 50.7619L245.16 51.7192Z" fill="#2F2E41"/>
<path opacity="0.2" d="M256.72 96.3626L256.498 83.2372L249.544 69.2577L255.125 83.6074L256.72 96.3626Z" fill="black"/>
<path d="M216.022 180.133H271.827C271.88 180.135 271.934 180.127 271.985 180.108C272.035 180.089 272.081 180.06 272.12 180.023C272.159 179.985 272.19 179.941 272.211 179.891C272.233 179.841 272.244 179.788 272.244 179.734C272.244 179.68 272.233 179.627 272.211 179.577C272.19 179.528 272.159 179.483 272.12 179.446C272.081 179.409 272.035 179.38 271.985 179.361C271.934 179.342 271.88 179.333 271.827 179.336H216.022C215.969 179.333 215.915 179.342 215.864 179.361C215.814 179.38 215.768 179.409 215.729 179.446C215.69 179.483 215.659 179.528 215.638 179.577C215.616 179.627 215.605 179.68 215.605 179.734C215.605 179.788 215.616 179.841 215.638 179.891C215.659 179.941 215.69 179.985 215.729 180.023C215.768 180.06 215.814 180.089 215.864 180.108C215.915 180.127 215.969 180.135 216.022 180.133Z" fill="#CCCCCC"/>
</g>
</g>
<path d="M74.4456 224.988H71.6292L61.5394 209.361C61.2842 208.969 61.0745 208.559 60.9105 208.131H60.8284C60.9013 208.55 60.9378 209.448 60.9378 210.824V224.988H58.6409V205.383H61.6214L71.4378 220.764C71.848 221.402 72.1123 221.839 72.2308 222.076H72.2855C72.1943 221.511 72.1487 220.549 72.1487 219.191V205.383H74.4456V224.988ZM85.137 225.316C83.068 225.316 81.4137 224.665 80.1741 223.361C78.9437 222.049 78.3284 220.312 78.3284 218.152C78.3284 215.801 78.971 213.964 80.2562 212.642C81.5413 211.321 83.2776 210.66 85.4651 210.66C87.5524 210.66 89.1793 211.303 90.346 212.588C91.5218 213.873 92.1097 215.655 92.1097 217.933C92.1097 220.167 91.4762 221.958 90.2093 223.307C88.9515 224.646 87.2607 225.316 85.137 225.316ZM85.3011 212.547C83.861 212.547 82.7217 213.039 81.8831 214.023C81.0446 214.999 80.6253 216.348 80.6253 218.07C80.6253 219.729 81.0491 221.037 81.8968 221.994C82.7444 222.951 83.8792 223.43 85.3011 223.43C86.7503 223.43 87.8623 222.96 88.637 222.021C89.4209 221.083 89.8128 219.747 89.8128 218.016C89.8128 216.266 89.4209 214.917 88.637 213.969C87.8623 213.021 86.7503 212.547 85.3011 212.547ZM103.676 224.988V205.383H109.09C115.999 205.383 119.453 208.568 119.453 214.939C119.453 217.965 118.492 220.399 116.569 222.24C114.655 224.072 112.089 224.988 108.871 224.988H103.676ZM105.973 207.461V222.91H108.899C111.469 222.91 113.47 222.222 114.901 220.846C116.332 219.469 117.047 217.519 117.047 214.994C117.047 209.972 114.377 207.461 109.035 207.461H105.973ZM133.03 224.988H130.787V222.801H130.733C129.757 224.478 128.322 225.316 126.426 225.316C125.032 225.316 123.938 224.947 123.145 224.209C122.361 223.471 121.969 222.491 121.969 221.269C121.969 218.654 123.509 217.131 126.59 216.703L130.787 216.115C130.787 213.736 129.826 212.547 127.903 212.547C126.216 212.547 124.694 213.121 123.336 214.269V211.973C124.713 211.098 126.298 210.66 128.094 210.66C131.384 210.66 133.03 212.401 133.03 215.883V224.988ZM130.787 217.906L127.41 218.371C126.371 218.517 125.588 218.777 125.059 219.15C124.53 219.515 124.266 220.167 124.266 221.105C124.266 221.789 124.507 222.349 124.991 222.787C125.483 223.215 126.134 223.43 126.946 223.43C128.058 223.43 128.974 223.042 129.694 222.267C130.423 221.484 130.787 220.495 130.787 219.301V217.906ZM143.748 224.851C143.22 225.143 142.522 225.289 141.657 225.289C139.205 225.289 137.979 223.922 137.979 221.187V212.902H135.573V210.988H137.979V207.57L140.221 206.846V210.988H143.748V212.902H140.221V220.791C140.221 221.73 140.381 222.4 140.7 222.801C141.019 223.202 141.547 223.402 142.285 223.402C142.851 223.402 143.338 223.247 143.748 222.937V224.851ZM156.764 224.988H154.522V222.801H154.467C153.492 224.478 152.056 225.316 150.16 225.316C148.766 225.316 147.672 224.947 146.879 224.209C146.095 223.471 145.703 222.491 145.703 221.269C145.703 218.654 147.244 217.131 150.325 216.703L154.522 216.115C154.522 213.736 153.56 212.547 151.637 212.547C149.951 212.547 148.429 213.121 147.071 214.269V211.973C148.447 211.098 150.033 210.66 151.828 210.66C155.119 210.66 156.764 212.401 156.764 215.883V224.988ZM154.522 217.906L151.145 218.371C150.106 218.517 149.322 218.777 148.793 219.15C148.265 219.515 148 220.167 148 221.105C148 221.789 148.242 222.349 148.725 222.787C149.217 223.215 149.869 223.43 150.68 223.43C151.792 223.43 152.708 223.042 153.428 222.267C154.157 221.484 154.522 220.495 154.522 219.301V217.906ZM178.926 207.461H171.27V214.242H178.352V216.307H171.27V224.988H168.973V205.383H178.926V207.461ZM188.196 225.316C186.127 225.316 184.472 224.665 183.233 223.361C182.002 222.049 181.387 220.312 181.387 218.152C181.387 215.801 182.03 213.964 183.315 212.642C184.6 211.321 186.336 210.66 188.524 210.66C190.611 210.66 192.238 211.303 193.405 212.588C194.58 213.873 195.168 215.655 195.168 217.933C195.168 220.167 194.535 221.958 193.268 223.307C192.01 224.646 190.319 225.316 188.196 225.316ZM188.36 212.547C186.92 212.547 185.78 213.039 184.942 214.023C184.103 214.999 183.684 216.348 183.684 218.07C183.684 219.729 184.108 221.037 184.955 221.994C185.803 222.951 186.938 223.43 188.36 223.43C189.809 223.43 190.921 222.96 191.696 222.021C192.479 221.083 192.871 219.747 192.871 218.016C192.871 216.266 192.479 214.917 191.696 213.969C190.921 213.021 189.809 212.547 188.36 212.547ZM210.071 224.988H207.828V222.773H207.774C206.844 224.469 205.404 225.316 203.453 225.316C200.117 225.316 198.45 223.329 198.45 219.355V210.988H200.678V219C200.678 221.953 201.808 223.43 204.069 223.43C205.162 223.43 206.06 223.029 206.762 222.226C207.473 221.415 207.828 220.358 207.828 219.055V210.988H210.071V224.988ZM226.231 224.988H223.989V217.004C223.989 214.032 222.904 212.547 220.735 212.547C219.614 212.547 218.684 212.971 217.946 213.818C217.216 214.657 216.852 215.719 216.852 217.004V224.988H214.61V210.988H216.852V213.312H216.907C217.964 211.544 219.495 210.66 221.5 210.66C223.032 210.66 224.203 211.157 225.014 212.15C225.825 213.135 226.231 214.561 226.231 216.43V224.988ZM242.418 224.988H240.176V222.609H240.121C239.082 224.414 237.478 225.316 235.309 225.316C233.55 225.316 232.142 224.692 231.084 223.443C230.036 222.185 229.512 220.476 229.512 218.316C229.512 216.001 230.095 214.146 231.262 212.752C232.429 211.357 233.983 210.66 235.924 210.66C237.847 210.66 239.246 211.417 240.121 212.93H240.176V204.262H242.418V224.988ZM240.176 218.658V216.594C240.176 215.463 239.802 214.506 239.055 213.723C238.308 212.939 237.36 212.547 236.211 212.547C234.844 212.547 233.769 213.048 232.985 214.051C232.201 215.053 231.809 216.439 231.809 218.207C231.809 219.82 232.183 221.096 232.93 222.035C233.687 222.965 234.698 223.43 235.965 223.43C237.214 223.43 238.226 222.978 239 222.076C239.784 221.174 240.176 220.034 240.176 218.658Z" fill="#D19A08" fill-opacity="0.95"/>
<defs>
<clipPath id="clip0_204_991">
<rect width="300" height="180.983" fill="white"/>
</clipPath>
<clipPath id="clip1_204_991">
<rect width="300.241" height="180.92" fill="white" transform="translate(-0.120605 0.0315094)"/>
</clipPath>
</defs>
</svg>
