<svg width="31" height="31" viewBox="0 0 31 31" fill="none" xmlns="http://www.w3.org/2000/svg">
<circle cx="15.5" cy="15.5" r="15" stroke="#EEEEEE"/>
<path d="M15.5172 7.67249C12.6669 7.67249 10.3505 9.98887 10.3505 12.8392V15.3278C10.3505 15.853 10.1267 16.6539 9.85972 17.1017L8.86944 18.7464C8.25805 19.7625 8.67999 20.8905 9.79944 21.2694C13.5108 22.5094 17.515 22.5094 21.2264 21.2694C22.2683 20.925 22.7247 19.6936 22.1564 18.7464L21.1661 17.1017C20.9078 16.6539 20.6839 15.853 20.6839 15.3278V12.8392C20.6839 9.99749 18.3589 7.67249 15.5172 7.67249Z" stroke="#EEEEEE" stroke-width="1.5" stroke-miterlimit="10" stroke-linecap="round"/>
<path d="M17.1102 7.92222C16.8432 7.84472 16.5677 7.78444 16.2835 7.75C15.4568 7.64666 14.6646 7.70694 13.9241 7.92222C14.1738 7.285 14.7938 6.83722 15.5171 6.83722C16.2405 6.83722 16.8605 7.285 17.1102 7.92222Z" stroke="#EEEEEE" stroke-width="1.5" stroke-miterlimit="10" stroke-linecap="round" stroke-linejoin="round"/>
<path d="M18.1005 21.5794C18.1005 23.0003 16.938 24.1628 15.5172 24.1628C14.8111 24.1628 14.1566 23.87 13.6916 23.405C13.2266 22.94 12.9338 22.2855 12.9338 21.5794" stroke="#EEEEEE" stroke-width="1.5" stroke-miterlimit="10"/>
<circle cx="20" cy="10" r="3" fill="#FFD700"/>
</svg>
